<svg width="14" height="8" viewBox="0 0 14 8" fill="none" xmlns="http://www.w3.org/2000/svg">
<path d="M9.75313 0.747146C9.71246 0.706472 9.68019 0.658185 9.65818 0.605041C9.63617 0.551897 9.62484 0.494938 9.62484 0.437415C9.62484 0.379893 9.63617 0.322934 9.65818 0.26979C9.68019 0.216646 9.71246 0.168359 9.75313 0.127684C9.7938 0.08701 9.84209 0.0547452 9.89524 0.0327324C9.94838 0.0107195 10.0053 -0.000610352 10.0629 -0.000610352C10.1204 -0.000610351 10.1773 0.0107195 10.2305 0.0327324C10.2836 0.0547452 10.3319 0.08701 10.3726 0.127684L13.8724 3.62747C13.9131 3.66811 13.9454 3.71638 13.9675 3.76953C13.9895 3.82268 14.0009 3.87966 14.0009 3.9372C14.0009 3.99474 13.9895 4.05172 13.9675 4.10487C13.9454 4.15802 13.9131 4.20629 13.8724 4.24693L10.3726 7.74671C10.2904 7.82886 10.179 7.87501 10.0629 7.87501C9.94669 7.87501 9.83528 7.82886 9.75313 7.74671C9.67098 7.66457 9.62484 7.55315 9.62484 7.43698C9.62484 7.32081 9.67098 7.2094 9.75313 7.12725L12.5066 4.37467H7.00055C5.28128 4.37467 4.04323 4.59078 3.08692 5.04313C2.14197 5.4911 1.43589 6.18756 0.813807 7.22437C0.75417 7.32392 0.657429 7.3957 0.544868 7.42392C0.432305 7.45215 0.313143 7.4345 0.213593 7.37486C0.114044 7.31523 0.042263 7.21848 0.01404 7.10592C-0.0141821 6.99336 0.0034647 6.8742 0.0631018 6.77465C0.75431 5.6241 1.57851 4.7894 2.71156 4.25306C3.83412 3.72109 5.22003 3.49973 7.00055 3.49973L12.5066 3.49973L9.75313 0.747146Z" fill="#333333"/>
</svg>
