<svg width="16" height="10" viewBox="0 0 16 10" fill="none" xmlns="http://www.w3.org/2000/svg">
<path d="M1 8.95455L5.02268 4.93187C5.12117 4.83336 5.2381 4.75521 5.3668 4.70189C5.49549 4.64858 5.63343 4.62114 5.77273 4.62114C5.91203 4.62114 6.04997 4.64858 6.17866 4.70189C6.30735 4.75521 6.42429 4.83336 6.52277 4.93187L8.2045 6.61359C8.30299 6.7121 8.41992 6.79025 8.54861 6.84356C8.67731 6.89688 8.81524 6.92432 8.95455 6.92432C9.09385 6.92432 9.23178 6.89688 9.36048 6.84356C9.48917 6.79025 9.6061 6.7121 9.70459 6.61359L14.2576 2.06061" stroke="#099829" stroke-linecap="round" stroke-linejoin="round"/>
<path d="M11.2879 1H15V4.71212" stroke="#099829" stroke-linecap="round" stroke-linejoin="round"/>
</svg>
